<svg width="199" height="237" viewBox="0 0 199 237" fill="none" xmlns="http://www.w3.org/2000/svg">
<g clip-path="url(#clip0)">
<path d="M139.393 235.795C138.671 235.073 137.061 234.67 134.077 234.464C129.801 234.169 129.795 234.166 128.594 231.854C127.089 228.954 123.864 227.212 119.408 226.89C116.412 226.674 115.945 226.452 114.702 224.643C113.498 222.893 112.999 222.638 110.798 222.638C108.551 222.638 108.196 222.444 107.533 220.849C106.69 218.832 104.062 216.727 102.377 216.727C101.758 216.727 100.946 216.422 100.573 216.05C100.063 215.542 99.4697 215.548 98.1917 216.076C96.6228 216.724 96.3201 216.62 94.3299 214.749C91.3886 211.984 91.0416 210.219 92.7321 206.622C93.483 205.023 94.45 203.716 94.881 203.716C95.312 203.716 95.9981 203.184 96.4057 202.533C97.4041 200.94 97.774 201.037 98.6413 203.125C99.6102 205.456 101.462 205.494 102.265 203.198C102.74 201.84 103.301 201.435 105.052 201.186C106.258 201.015 107.676 200.702 108.202 200.489C108.925 200.197 109.249 200.546 109.523 201.909C109.832 203.451 110.151 203.716 111.699 203.716C112.696 203.716 113.649 204.073 113.817 204.509C114.048 205.109 115.89 205.314 121.364 205.35C129.07 205.401 129.811 205.195 133.192 202.061C134.611 200.746 135.002 200.645 136.335 201.25C138.702 202.325 140.976 202.102 141.848 200.709C142.306 199.979 142.984 199.616 143.512 199.818C144.002 200.006 145.201 199.748 146.176 199.246C148.321 198.14 150.54 198.627 149.941 200.073C149.717 200.613 149.39 201.587 149.214 202.237C149.039 202.888 148.401 204.127 147.798 204.99C147.195 205.853 146.702 206.792 146.702 207.076C146.702 207.36 145.872 208.318 144.858 209.205C143.385 210.493 143.091 211.12 143.394 212.324C143.658 213.373 143.407 214.295 142.568 215.359C141.038 217.296 141.031 219.203 142.549 220.571C143.801 221.701 144.143 223.232 143.142 223.232C142.084 223.232 142.514 224.947 143.735 225.598C145.482 226.53 145.295 228.925 143.439 229.389C142.063 229.733 141.955 230.018 141.955 233.298C141.955 237.093 141.314 237.718 139.393 235.8V235.8L139.393 235.795ZM151.584 206.863C150.515 206.434 151.277 200.986 152.747 198.553C153.625 197.099 153.855 195.793 153.718 193.031C153.516 188.991 154.388 187.744 157.42 187.744C159.502 187.744 160.203 185.105 158.598 183.308C158.017 182.657 157.086 180.262 156.53 177.985C155.816 175.066 155.082 173.497 154.042 172.663C152.933 171.774 152.302 170.301 151.508 166.748C149.983 159.923 148.233 157.67 146.696 160.538C146.347 161.189 145.737 161.712 145.34 161.701C144.385 161.672 141.952 159.619 141.952 158.839C141.952 158.497 140.817 157.896 139.43 157.503C136.003 156.532 135.887 156.362 136.817 153.698C137.552 151.592 137.517 151.137 136.449 148.936C135.304 146.58 135.2 146.518 133.121 146.952C131.941 147.199 129.954 147.578 128.706 147.794L126.437 148.187L126.63 145.638L126.82 143.089L124.254 142.905C122.125 142.753 121.569 142.45 120.987 141.131C120.601 140.256 119.249 138.127 117.981 136.398C115.73 133.328 115.623 133.264 113.366 133.644C112.068 133.863 110.739 133.773 110.334 133.439C109.509 132.765 106.347 133.202 106.347 133.995C106.347 134.279 105.688 134.515 104.881 134.515C103.791 134.515 103.069 133.908 102.063 132.141C100.964 130.213 100.293 129.699 98.4911 129.405C96.6578 129.106 95.704 128.351 93.0027 125.06C90.8727 122.47 89.7335 120.536 89.7335 119.519C89.7335 118.495 89.4131 117.957 88.8019 117.957C87.1024 117.957 82.6235 114.381 81.4487 112.087C80.6097 110.448 79.6072 109.554 77.7992 108.833C76.1032 108.156 75.1815 108.04 74.9153 108.469C74.6392 108.915 73.9683 108.907 72.6352 108.444C70.6976 107.771 70.1724 106.346 71.408 105.115C72.2833 104.242 69.3475 100.333 67.463 99.8615C66.5034 99.6215 66.0033 98.9423 65.7345 97.5142C65.4264 95.8771 65.0036 95.4141 63.4529 95.0157C61.5611 94.5297 61.5476 94.4997 61.2528 90.0956C61.0655 87.2986 60.5732 85.0838 59.9178 84.0893C59.3467 83.223 58.8794 81.5864 58.8794 80.4525C58.8794 77.1461 57.7057 72.6134 56.5884 71.6056C56.0212 71.094 54.4053 70.2703 52.9974 69.7752C51.5896 69.2801 49.3333 68.1914 47.9836 67.3559C46.6338 66.5204 43.9188 64.8327 41.9505 63.6054C39.982 62.3782 37.2814 61.2003 35.9495 60.988C33.6113 60.6154 33.4263 60.7095 30.6154 63.701C29.0139 65.4055 27.1631 67.4988 26.5025 68.3529C24.5682 70.8605 20.8527 72.4218 16.84 72.4218H13.3188L13.7616 70.4651C14.0051 69.3889 14.6841 67.7784 15.2706 66.8862C16.6899 64.7271 16.0774 64.2584 11.1197 63.71L7.00487 63.2547L5.0249 58.5411C3.24725 54.3055 3.14164 53.7513 3.99308 53.1309C5.15543 52.2834 5.95288 48.1737 4.95548 48.1737C4.58108 48.1737 3.83051 47.2452 3.28701 46.1097C2.7441 44.9748 1.81375 43.8919 1.22041 43.7045C0.44373 43.4584 0.140533 42.7742 0.140533 41.2655V39.1682L2.7555 39.5591C5.04827 39.9018 5.55664 39.7643 6.88187 38.4434C7.71313 37.6142 8.67256 36.9365 9.01373 36.9365C10.5251 36.9365 9.545 33.2174 7.19972 30.0531L4.76543 26.7686L6.72279 24.7557C8.42033 23.0092 9.06232 22.7425 11.5638 22.7425C13.1502 22.7425 15.6501 22.4408 17.1192 22.0721C18.9931 21.6017 20.1938 21.5849 21.142 22.0155C23.1622 22.933 25.8682 21.012 26.7669 18.0223C27.1566 16.7257 28.0001 15.385 28.6412 15.043C29.2826 14.7011 29.8072 13.898 29.8072 13.2593C29.8072 11.9022 30.8323 11.789 32.4006 12.9728C33.2493 13.6135 33.4272 14.2705 33.1563 15.7632C32.8992 17.1799 33.1128 18.1193 33.9349 19.1865L35.0679 20.6574L36.4808 19.3344C38.0727 17.8437 38.7592 17.7083 39.7449 18.6907C40.2581 19.2023 40.2212 19.7657 39.5955 20.9718C38.6889 22.7193 39.1419 25.7454 40.3713 26.1539C40.8584 26.316 41.0803 25.4614 41.0803 23.4234C41.0803 20.8347 41.2963 20.304 42.7782 19.2523C43.8753 18.4736 44.7423 17.0993 45.2286 15.3679C45.8973 12.9869 46.1703 12.6888 47.6839 12.6888C49.245 12.6888 49.3868 12.8668 49.3868 14.8279C49.3868 16.769 49.5103 16.9303 50.7218 16.5713C51.456 16.3538 53.0484 16.0229 54.2603 15.836C56.2188 15.5339 56.5427 15.6688 57.1739 17.0496C57.5655 17.9036 58.0639 18.6026 58.2834 18.6026C59.3908 18.6026 59.2589 17.6623 57.8549 15.5477L56.3048 13.2128L57.8448 11.6777C59.2527 10.2744 59.5383 10.2061 61.1735 10.8811C63.6359 11.8966 64.2233 11.3241 64.2233 7.92292V5.00077H66.7068C68.4302 5.00077 69.6051 5.38931 70.5461 6.27041C72.1919 7.81156 73.2995 7.16568 74.3258 4.06634C74.9428 2.1885 75.1742 2.04372 77.5001 2.04372C78.8781 2.04372 80.311 2.34828 80.6844 2.72053C81.1942 3.22864 81.8155 3.2107 83.177 2.64856C84.5127 2.09709 85.1995 2.07264 85.7835 2.5558C86.3895 3.05707 86.9036 2.8648 87.9631 1.74066C89.7787 -0.183487 94.4839 -0.433534 94.4839 1.39422C94.4839 2.01638 93.6222 3.06897 92.5555 3.74992L90.6272 4.98087L92.2476 4.99084C93.4489 4.99823 93.9584 5.35997 94.2177 6.38952C94.41 7.15333 95.8371 8.74339 97.3891 9.92313C100.196 12.0567 100.251 12.0701 107.752 12.4699C111.9 12.6909 115.393 13.0318 115.514 13.2273C115.636 13.4229 115.6 14.2844 115.436 15.1417C115.224 16.2446 114.464 17.0028 112.837 17.7344C110.374 18.8403 110.267 19.786 112.593 19.786C113.397 19.786 114.289 20.2856 114.635 20.93C115.555 22.6421 115.389 23.3346 114.048 23.3346C112.114 23.3346 111.928 25.0407 113.685 26.665C114.548 27.4618 115.253 28.594 115.253 29.181C115.253 29.768 115.749 30.6954 116.354 31.2419C117.069 31.886 117.357 32.7504 117.175 33.6992C116.816 35.5704 115.656 35.5692 114.425 33.6964C113.57 32.3954 113.171 32.2697 110.886 32.5818C109.47 32.7754 107.803 32.6728 107.183 32.354C105.519 31.498 104.346 32.0646 105.468 33.1827C105.955 33.6677 106.353 34.3071 106.353 34.6037C106.353 35.3833 100.89 37.9476 99.7715 37.6929C99.252 37.5746 98.5041 37.8655 98.1095 38.3395C97.4961 39.0761 97.1657 39.0842 95.8332 38.3951C93.8665 37.3781 93.4963 37.6232 92.6262 40.518C91.986 42.6476 92.0398 42.9933 93.2032 44.2277C93.9088 44.9763 94.4861 46.142 94.4861 46.8181C94.4861 47.4942 94.8866 48.2006 95.3761 48.3878C95.9636 48.6125 96.2661 49.5387 96.2661 51.1124C96.2661 53.3653 95.5847 54.1986 94.7903 52.9174C94.0023 51.6465 92.1123 53.7376 92.1336 55.8567C92.1639 58.8742 93.6134 65.1537 94.5575 66.3584C98.4947 71.3808 99.5892 72.4215 100.933 72.4215C101.85 72.4215 103.165 73.2589 104.516 74.7023C105.845 76.1227 107.769 77.3569 109.616 77.9741C113.549 79.2877 114.422 80.028 114.934 82.4839C115.171 83.6177 115.983 85.4768 116.738 86.6153C117.623 87.9486 118.26 90.0533 118.529 92.5294C119.219 98.9001 121.119 102.663 126.01 107.348C128.367 109.607 130.54 111.454 130.839 111.454C131.137 111.454 132.473 112.386 133.807 113.524C135.142 114.663 136.55 115.594 136.936 115.594C137.323 115.594 138.364 116.162 139.25 116.857C140.684 117.981 141.111 118.044 143.147 117.436C144.706 116.971 146.222 116.93 147.91 117.308C149.693 117.707 151.009 117.644 152.604 117.083C154.587 116.386 155.012 116.424 156.633 117.447C158.969 118.921 158.618 120.496 155.519 122.446C152.199 124.535 152.527 128.014 156.044 128.014C156.81 128.014 158.025 128.639 158.743 129.403C159.485 130.191 162.232 131.508 165.093 132.448C170.831 134.332 179.553 138.815 180.725 140.482C181.682 141.845 185.877 143.39 188.617 143.39C190.243 143.39 190.773 143.705 191.361 145.017C191.762 145.911 193.487 148.041 195.194 149.75C198.804 153.363 199.194 154.486 198.637 159.672C198.322 162.601 197.952 163.653 197.07 164.124C195.409 165.009 192.56 162.818 191.17 159.585C190.562 158.171 189.469 156.211 188.741 155.229C187.53 153.591 187.127 153.443 183.917 153.443C179.971 153.443 177.224 152.201 176.72 150.185C176.435 149.061 174.21 147.529 172.851 147.529C172.281 147.529 171.259 149.981 170.749 152.571C170.541 153.634 169.863 154.595 169.081 154.937C168.051 155.388 167.682 156.182 167.387 158.585C167.181 160.275 166.417 162.616 165.69 163.788C164.426 165.826 164.414 165.97 165.408 167.065C166.022 167.742 167.619 168.365 169.314 168.589C171.394 168.864 172.278 169.274 172.536 170.083C172.731 170.697 173.637 171.583 174.549 172.053C176.071 172.837 176.238 173.264 176.577 177.222C176.78 179.594 177.016 182.186 177.102 182.981C177.246 184.326 176.967 184.484 173.104 185.245C167.771 186.295 166.904 187.295 166.887 192.419C166.874 196.088 166.8 196.269 164.546 198.193C163.214 199.329 162.05 200.941 161.825 201.96C161.609 202.94 160.764 204.533 159.947 205.501C158.638 207.051 158.096 207.256 155.399 207.215C153.715 207.189 151.997 207.032 151.582 206.865L151.584 206.863ZM27.4339 183.301C26.8805 182.637 26.4875 182.574 25.904 183.057C24.76 183.997 23.8801 183.193 23.8801 181.2C23.8801 180.242 23.5971 179.461 23.2517 179.461C22.9061 179.461 22.755 179.673 22.9159 179.933C23.4384 180.775 22.2461 182.009 21.2699 181.636C20.2067 181.228 19.878 176.502 20.9133 176.502C21.2615 176.502 21.5067 174.462 21.5067 171.564C21.5067 167.022 21.6488 166.43 23.2758 164.191C25.0404 161.767 25.1371 159.945 23.5013 159.945C22.3074 159.945 21.8273 158.324 22.708 157.266C23.2306 156.638 23.3321 155.243 23.0527 152.525C22.3973 146.149 22.1115 145.308 20.3538 144.583C18.9301 143.995 18.7378 143.596 18.7378 141.229C18.7378 139.305 19.0343 138.357 19.7815 137.892C20.7169 137.31 20.7292 137.172 19.8998 136.568C18.4577 135.517 20.1018 132.505 22.2528 132.258C24.1695 132.037 24.3581 132.936 22.6934 134.356C20.9409 135.852 21.2366 137.137 23.523 137.961C24.9414 138.472 26.2747 138.523 28.0193 138.132C30.8636 137.495 30.5776 137.704 31.7625 135.402C32.3308 134.298 34.0136 132.901 36.2177 131.704L39.7595 129.781L41.9066 132.149C43.0873 133.45 44.0533 134.917 44.0533 135.402C44.0533 135.893 44.582 136.289 45.24 136.289C46.1102 136.289 46.4266 136.684 46.4266 137.768C46.4266 138.852 46.1102 139.246 45.24 139.246C44.5873 139.246 44.0533 139.512 44.0533 139.838C44.0533 140.163 44.6996 140.429 45.4895 140.429C46.9992 140.429 47.0903 140.644 47.9261 146.171C48.255 148.345 48.0777 148.942 46.5206 150.902C44.3614 153.619 44.0673 155.079 45.3203 156.861C46.2009 158.113 46.1748 158.542 44.9631 162.727C43.9831 166.111 43.7727 167.846 44.1226 169.655C44.4983 171.598 44.3895 172.242 43.5649 172.956C43.0015 173.444 42.6336 174.31 42.7474 174.88C42.8612 175.45 42.5341 176.077 42.0205 176.274C41.5066 176.469 41.0866 177.267 41.0866 178.048C41.0866 179.962 39.8798 179.829 37.8232 177.689C35.0341 174.787 32.7798 175.612 32.7798 179.533C32.7798 181.392 32.4707 181.923 30.7815 182.964C28.3948 184.434 28.3789 184.435 27.4337 183.3L27.4339 183.301Z" stroke="white" stroke-width="5"/>
</g>
<defs>
<clipPath id="clip0">
<rect width="199" height="237" fill="white"/>
</clipPath>
</defs>
</svg>
