<?xml version="1.0" encoding="UTF-8" standalone="no"?>
<svg PUBLIC "-//W3C//DTD SVG 20010904//EN" "http://www.w3.org/TR/2001/REC-SVG-20010904/DTD/svg10.dtd">
<svg version="1.0" xmlns="http://www.w3.org/2000/svg" width="543.000000pt" height="642.000000pt" viewBox="0 0 543.000000 642.000000" preserveAspectRatio="xMidYMid meet">
<metadata>
Created by potrace 1.12, written by Peter Selinger 2001-2015
</metadata>
<g transform="translate(0.000000,642.000000) scale(0.100000,-0.100000)" fill="#000000" stroke="none">
<path d="M2480 6404 c-25 -7 -65 -14 -90 -14 -25 -1 -63 -5 -85 -10 -22 -4 -76 -16 -120 -25 -44 -10 -92 -24 -107 -31 -25 -13 -26 -16 -17 -50 9 -29 7 -39 -7 -55 -20 -23 -79 -26 -87 -5 -17 43 -123 73 -189 54 l-38 -11 0 -65 c0 -46 5 -71 16 -83 9 -10 14 -26 10 -34 -8 -21 -58 -12 -98 16 -38 26 -47 24 -64 -16 -13 -33 -13 -39 7 -83 25 -55 26 -109 4 -131 -15 -15 -19 -13 -44 15 -16 17 -30 37 -32 43 -3 9 -20 8 -64 -4 -108 -28 -131 -19 -153 61 -14 48 -29 57 -63 40 -18 -8 -23 -19 -21 -37 2 -15 -14 -62 -38 -109 -26 -56 -40 -98 -40 -124 0 -49 -15 -105 -34 -131 -14 -19 -16 -19 -45 15 -17 21 -32 52 -36 78 -5 37 -9 42 -33 42 -38 1 -63 17 -110 73 -26 29 -43 61 -47 85 -15 91 -15 90 -38 84 -12 -3 -47 -31 -78 -61 -50 -50 -57 -62 -63 -107 -7 -54 -32 -86 -111 -138 -34 -24 -46 -26 -90 -21 -35 5 -69 1 -108 -10 -46 -13 -63 -14 -90 -4 -30 10 -39 8 -104 -25 -40 -19 -74 -44 -77 -54 -9 -26 2 -50 24 -57 11 -4 25 -26 36 -57 9 -29 34 -70 57 -95 35 -39 39 -47 34 -81 -7 -44 -85 -122 -122 -122 -46 0 -125 -45 -125 -71 0 -4 22 -34 49 -67 35 -42 62 -63 95 -76 66 -25 71 -53 17 -111 -46 -51 -44 -45 -31 -81 9 -22 6 -40 -16 -96 -14 -38 -25 -71 -23 -72 20 -17 102 -48 179 -66 l96 -23 48 22 c46 20 50 20 68 5 10 -10 18 -27 18 -39 0 -24 -36 -83 -77 -126 -24 -26 -24 -28 -9 -58 21 -40 41 -40 150 0 93 34 133 68 166 143 9 23 36 58 59 79 23 21 53 56 66 77 42 67 136 76 252 24 35 -15 64 -21 82 -18 31 7 44 -1 163 -94 55 -42 72 -51 93 -46 100 25 155 -51 220 -305 9 -36 27 -86 41 -113 18 -35 27 -77 35 -156 11 -105 21 -142 39 -142 5 0 21 5 36 10 36 14 49 1 68 -65 14 -47 20 -55 56 -69 26 -10 42 -24 46 -40 3 -15 23 -33 55 -50 27 -15 49 -31 49 -35 0 -5 -12 -20 -26 -34 -18 -18 -24 -32 -19 -46 8 -26 20 -26 52 -1 17 13 33 18 47 14 36 -12 167 -126 186 -164 22 -42 53 -72 100 -95 48 -24 69 -44 90 -85 10 -19 37 -55 60 -80 23 -25 60 -69 82 -98 40 -54 71 -73 145 -92 31 -8 52 -23 84 -61 40 -48 41 -51 23 -64 -11 -8 -26 -17 -34 -20 -17 -5 -75 -114 -66 -123 3 -3 20 7 38 22 18 15 60 47 93 72 58 45 62 46 110 39 28 -4 68 -7 89 -7 89 0 163 -87 153 -182 -9 -99 20 -120 117 -86 93 32 120 10 92 -75 -22 -63 -21 -66 20 -49 19 8 64 18 100 21 54 5 67 3 86 -13 42 -38 74 -143 48 -159 -19 -12 -9 -24 49 -59 32 -20 65 -43 72 -52 8 -10 38 -35 67 -56 49 -37 54 -38 74 -23 44 30 52 21 118 -122 34 -76 85 -170 112 -209 49 -70 50 -72 43 -127 -7 -51 -4 -60 30 -121 21 -38 34 -73 31 -83 -11 -36 -54 -70 -94 -77 -22 -3 -48 -13 -57 -22 -14 -15 -14 -19 4 -50 20 -33 20 -35 3 -91 l-17 -57 -60 -13 c-33 -7 -80 -21 -105 -32 -25 -10 -84 -24 -133 -30 -57 -8 -109 -22 -150 -41 -80 -38 -135 -50 -189 -40 -87 17 -181 15 -217 -4 -42 -22 -64 -17 -166 41 -170 97 -179 98 -244 24 -25 -28 -49 -51 -52 -51 -3 0 -14 18 -24 41 -17 37 -21 40 -48 35 -60 -12 -93 -43 -136 -127 -46 -91 -50 -122 -21 -179 23 -46 73 -81 145 -106 28 -9 61 -24 75 -34 14 -9 118 -63 232 -119 157 -76 217 -101 247 -101 53 0 151 -73 203 -151 l37 -57 68 -7 c37 -4 80 -13 95 -21 57 -30 148 -5 148 40 0 9 11 39 25 66 40 79 32 126 -39 231 -40 60 -42 75 -22 140 8 24 17 65 21 91 5 35 18 63 53 109 26 33 57 75 70 92 21 28 56 56 73 57 3 0 11 -19 18 -42 22 -72 46 -95 108 -102 68 -8 82 2 126 92 17 35 40 71 52 80 62 51 145 208 145 276 0 81 38 114 172 147 45 12 91 28 100 37 15 15 15 22 2 72 -7 30 -14 93 -15 140 0 47 -3 92 -5 101 -3 9 -28 27 -57 39 -29 12 -65 28 -82 35 -16 8 -47 21 -67 29 -36 14 -78 65 -78 94 0 7 11 29 24 50 13 20 31 60 40 87 9 28 45 89 80 136 55 74 69 87 104 96 35 9 43 8 71 -14 17 -13 59 -36 93 -50 53 -21 71 -24 125 -18 l62 6 35 -53 c20 -30 42 -80 50 -116 8 -35 23 -73 33 -84 16 -19 93 -58 112 -58 15 0 81 110 93 154 14 52 1 102 -55 216 -30 62 -36 67 -112 109 -44 24 -104 53 -132 65 -33 14 -97 60 -166 120 -103 89 -123 101 -237 150 -69 29 -156 63 -195 75 -67 22 -254 110 -281 132 -24 20 -16 39 44 102 89 95 104 120 96 163 l-7 36 -56 -7 c-31 -4 -77 -15 -103 -25 -39 -15 -60 -16 -120 -10 -114 13 -220 40 -260 66 -20 13 -49 26 -65 30 -15 3 -46 26 -68 51 -23 26 -67 58 -105 76 -60 30 -66 36 -86 87 -16 41 -29 59 -54 72 -47 24 -80 58 -80 84 0 12 -23 67 -51 122 -36 71 -53 118 -59 163 -8 61 -44 180 -70 230 -7 13 -26 38 -42 56 -26 26 -34 30 -58 23 -24 -7 -31 -4 -44 16 -9 13 -96 77 -194 143 -97 66 -187 128 -199 138 -18 14 -30 50 -57 163 -52 216 -59 256 -51 270 4 7 24 10 48 8 39 -3 42 -1 64 37 33 59 30 82 -21 135 -41 42 -76 117 -76 162 0 10 12 37 27 59 31 47 71 71 93 57 12 -8 41 3 115 43 55 28 111 62 123 73 21 18 36 21 116 21 67 0 98 4 111 15 15 13 19 12 35 -8 71 -87 68 -85 95 -68 25 17 41 56 32 79 -3 7 -32 31 -66 53 -57 36 -61 41 -58 73 2 30 -2 36 -23 41 -30 8 -28 19 11 84 36 58 32 76 -16 76 -46 0 -75 15 -75 40 0 11 30 45 70 81 76 68 87 95 43 105 -16 3 -58 14 -95 25 -41 12 -97 19 -148 19 -59 0 -101 7 -153 24 -40 13 -93 27 -120 30 -33 5 -51 13 -60 29 -32 57 -74 107 -99 118 -33 14 -34 17 -9 43 11 12 23 33 26 49 8 31 2 33 -65 11z"/>
<path d="M1484 2657 c-33 -24 -89 -73 -127 -110 -93 -91 -167 -111 -233 -61 -38 29 -41 44 -18 79 10 16 14 34 10 51 -13 49 -32 7 -46 -98 -7 -57 -19 -115 -27 -130 -21 -42 -16 -56 35 -111 72 -79 98 -125 106 -191 7 -56 7 -59 -24 -91 -25 -26 -31 -39 -28 -66 3 -30 6 -33 38 -34 27 0 37 -6 50 -27 12 -23 13 -31 2 -45 -42 -59 -52 -82 -51 -113 0 -19 -4 -53 -10 -75 -6 -22 -11 -64 -11 -93 0 -29 -4 -62 -10 -72 -5 -10 -11 -44 -12 -75 -4 -70 10 -80 52 -35 l29 31 28 -40 c26 -38 31 -40 78 -41 53 0 155 40 155 60 0 6 -5 20 -10 31 -9 16 -6 25 19 49 38 38 101 42 125 9 14 -21 16 -21 41 -5 31 21 50 62 60 131 4 28 13 60 21 72 8 13 21 55 29 94 15 68 14 75 -5 131 -11 32 -20 69 -20 83 0 14 -8 42 -19 63 -18 35 -18 39 -2 78 9 23 31 54 49 69 28 23 32 33 32 74 0 26 -4 51 -9 57 -6 5 -14 27 -20 49 -16 68 -35 109 -58 128 -16 13 -22 28 -21 55 1 51 -22 109 -49 121 -14 7 -20 16 -17 26 5 12 -2 15 -34 15 -31 0 -52 -9 -98 -43z"/>
</g>
</svg>