<svg width="773" height="794" viewBox="0 0 773 794" fill="none" xmlns="http://www.w3.org/2000/svg">
<g id="undraw_cooking_lyxy 1">
<g id="fork">
<path id="Vector" d="M191.277 274.942L163.683 293.04L451.063 731.205L478.657 713.107L191.277 274.942Z" fill="#E6E6E6"/>
<path id="Vector_2" d="M125.583 110.049L189.427 207.391C190.663 209.277 191.1 211.576 190.641 213.783C190.183 215.99 188.866 217.924 186.981 219.161C185.096 220.397 182.797 220.834 180.59 220.375C178.383 219.917 176.448 218.6 175.212 216.715L101.815 104.808C91.8523 103.976 81.8386 105.62 72.6655 109.595L152.634 231.523C153.87 233.408 154.306 235.706 153.847 237.913C153.388 240.12 152.072 242.054 150.187 243.29C148.302 244.526 146.004 244.963 143.797 244.505C141.59 244.046 139.656 242.73 138.419 240.846L58.4502 118.918C51.1497 125.748 45.6515 134.278 42.4452 143.747L115.842 255.654C117.078 257.539 117.514 259.837 117.055 262.044C116.596 264.251 115.279 266.185 113.395 267.421C111.51 268.657 109.211 269.094 107.005 268.636C104.798 268.178 102.863 266.862 101.627 264.977L37.7823 167.635C36.1425 194.776 44.9918 226.946 64.3856 256.516C100.43 311.472 159.225 336.625 195.709 312.696C232.192 288.768 232.548 224.819 196.504 169.863C177.11 140.293 151.13 119.359 125.583 110.049Z" fill="#E6E6E6"/>
</g>
<g id="spoon">
<path id="Vector_3" d="M315 215H282V739H315V215Z" fill="#E6E6E6"/>
<path id="Vector_4" d="M298 249C341.63 249 377 195.722 377 130C377 64.2781 341.63 11 298 11C254.37 11 219 64.2781 219 130C219 195.722 254.37 249 298 249Z" fill="#E6E6E6"/>
<path id="Vector_5" d="M298 227.911C333.899 227.911 363 184.075 363 130C363 75.925 333.899 32.0886 298 32.0886C262.101 32.0886 233 75.925 233 130C233 184.075 262.101 227.911 298 227.911Z" fill="#CCCCCC"/>
</g>
<path id="floor" d="M390 765.885C591.032 765.885 754 756.535 754 745C754 733.465 591.032 724.115 390 724.115C188.968 724.115 26 733.465 26 745C26 756.535 188.968 765.885 390 765.885Z" fill="#E6E6E6"/>
<g id="hat">
<path id="Vector_6" d="M605.268 744.693C468.855 720.105 329.145 720.105 192.732 744.693C190.565 745.086 188.339 744.998 186.209 744.436C184.08 743.874 182.1 742.852 180.409 741.441C178.718 740.031 177.357 738.266 176.422 736.272C175.488 734.278 175.002 732.103 175 729.901V543H623V729.901C622.998 732.103 622.512 734.278 621.578 736.272C620.643 738.266 619.282 740.031 617.591 741.441C615.9 742.852 613.92 743.874 611.791 744.436C609.661 744.998 607.435 745.086 605.268 744.693Z" fill="#6C63FF"/>
<path id="Vector_7" d="M582 405C571.656 404.991 561.382 406.71 551.605 410.086C537.343 379.154 514.555 352.931 485.913 334.495C457.272 316.059 423.966 306.174 389.904 306.002C355.843 305.83 322.439 315.377 293.613 333.523C264.786 351.669 241.734 377.66 227.161 408.447C212.811 404.421 197.703 403.904 183.111 406.937C168.519 409.97 154.87 416.466 143.313 425.877C131.756 435.288 122.63 447.339 116.704 461.014C110.778 474.689 108.225 489.589 109.26 504.457C110.296 519.325 114.889 533.726 122.653 546.448C130.418 559.169 141.126 569.839 153.876 577.557C166.626 585.275 181.044 589.817 195.915 590.798C210.787 591.78 225.677 589.173 239.331 583.197C255.741 608.204 278.155 628.7 304.526 642.814C330.897 656.928 360.384 664.211 390.294 663.995C420.203 663.78 449.582 656.075 475.747 641.582C501.913 627.09 524.03 606.273 540.079 581.033C552.617 587.363 566.426 590.771 580.47 591.001C594.514 591.231 608.427 588.277 621.166 582.361C633.905 576.446 645.139 567.722 654.024 556.844C662.91 545.966 669.216 533.217 672.47 519.553C675.724 505.89 675.841 491.667 672.812 477.951C669.783 464.236 663.688 451.385 654.982 440.363C646.277 429.34 635.188 420.432 622.549 414.308C609.909 408.183 596.046 405.001 582 405Z" fill="#6C63FF"/>
<path id="Vector_8" d="M211 485H209C208.932 458.373 214.825 432.068 226.247 408.015L228.055 408.871C216.76 432.657 210.932 458.669 211 485Z" fill="#3F3D56"/>
<path id="Vector_9" d="M569 485H567C567.062 459.276 561.501 433.849 550.706 410.499L552.522 409.661C563.439 433.273 569.063 458.986 569 485Z" fill="#3F3D56"/>
<path id="Vector_10" d="M175.241 629.971L174.759 628.029C175.323 627.89 232.162 613.93 315.459 607.003C392.34 600.61 508.146 599.068 623.244 628.03L622.756 629.97C507.939 601.08 392.387 602.615 315.667 608.993C232.519 615.904 175.804 629.831 175.241 629.971Z" fill="#3F3D56"/>
<path id="Vector_11" d="M175.241 656.971L174.759 655.029C175.323 654.89 232.162 640.93 315.459 634.003C392.34 627.61 508.146 626.068 623.244 655.03L622.756 656.97C507.939 628.08 392.387 629.617 315.667 635.993C232.519 642.904 175.804 656.831 175.241 656.971Z" fill="#3F3D56"/>
<path id="Vector_12" d="M175.241 683.971L174.759 682.029C175.323 681.89 232.162 667.93 315.459 661.003C392.34 654.61 508.146 653.068 623.244 682.03L622.756 683.97C507.939 655.08 392.387 656.617 315.667 662.993C232.519 669.904 175.804 683.831 175.241 683.971Z" fill="#3F3D56"/>
</g>
<g id="left">
<path id="Vector_13" d="M121.886 739.112C100.054 752.767 78.2212 752.761 56.3887 739.095C55.6976 738.669 55.1363 738.062 54.7658 737.34C54.3954 736.618 54.23 735.808 54.2875 734.998L61.0999 646.437H116.2L123.983 734.967C124.05 735.784 123.89 736.604 123.52 737.336C123.15 738.067 122.584 738.682 121.886 739.112Z" fill="#3F3D56"/>
<path id="Vector_14" d="M88.396 657.457C103.752 657.457 116.2 652.972 116.2 647.439C116.2 641.906 103.752 637.421 88.396 637.421C73.0401 637.421 60.5916 641.906 60.5916 647.439C60.5916 652.972 73.0401 657.457 88.396 657.457Z" fill="#3F3D56"/>
<path id="Vector_15" d="M110.189 644.057C95.7011 654.249 81.6755 654.249 68.1127 644.057V628.028H110.189V644.057Z" fill="#6C63FF"/>
<path id="Vector_16" d="M89.151 636.042C100.77 636.042 110.189 632.454 110.189 628.028C110.189 623.601 100.77 620.013 89.151 620.013C77.5319 620.013 68.1127 623.601 68.1127 628.028C68.1127 632.454 77.5319 636.042 89.151 636.042Z" fill="#6C63FF"/>
<path id="Vector_17" d="M90.1529 628.028C91.2595 628.028 92.1565 627.579 92.1565 627.026C92.1565 626.473 91.2595 626.024 90.1529 626.024C89.0463 626.024 88.1492 626.473 88.1492 627.026C88.1492 627.579 89.0463 628.028 90.1529 628.028Z" fill="#E6E6E6"/>
<path id="Vector_18" d="M99.614 628.028C100.721 628.028 101.618 627.579 101.618 627.026C101.618 626.473 100.721 626.024 99.614 626.024C98.5074 626.024 97.6103 626.473 97.6103 627.026C97.6103 627.579 98.5074 628.028 99.614 628.028Z" fill="#E6E6E6"/>
<path id="Vector_19" d="M94.8834 630.393C95.99 630.393 96.8871 629.945 96.8871 629.391C96.8871 628.838 95.99 628.389 94.8834 628.389C93.7768 628.389 92.8798 628.838 92.8798 629.391C92.8798 629.945 93.7768 630.393 94.8834 630.393Z" fill="#E6E6E6"/>
<path id="Vector_20" d="M75.9612 630.393C77.0678 630.393 77.9648 629.945 77.9648 629.391C77.9648 628.838 77.0678 628.389 75.9612 628.389C74.8546 628.389 73.9576 628.838 73.9576 629.391C73.9576 629.945 74.8546 630.393 75.9612 630.393Z" fill="#E6E6E6"/>
<path id="Vector_21" d="M80.6918 628.028C81.7983 628.028 82.6954 627.579 82.6954 627.026C82.6954 626.473 81.7983 626.024 80.6918 626.024C79.5852 626.024 78.6881 626.473 78.6881 627.026C78.6881 627.579 79.5852 628.028 80.6918 628.028Z" fill="#E6E6E6"/>
<path id="Vector_22" d="M85.4223 631.576C86.5289 631.576 87.426 631.127 87.426 630.574C87.426 630.021 86.5289 629.572 85.4223 629.572C84.3157 629.572 83.4187 630.021 83.4187 630.574C83.4187 631.127 84.3157 631.576 85.4223 631.576Z" fill="#E6E6E6"/>
</g>
<g id="right">
<path id="Vector_23" d="M726.886 739.112C705.054 752.767 683.221 752.761 661.389 739.095C660.698 738.669 660.136 738.062 659.766 737.34C659.395 736.618 659.23 735.808 659.287 734.998L666.1 646.437H721.2L728.983 734.967C729.05 735.784 728.89 736.604 728.52 737.336C728.15 738.067 727.584 738.682 726.886 739.112Z" fill="#3F3D56"/>
<path id="Vector_24" d="M693.396 657.457C708.752 657.457 721.2 652.972 721.2 647.439C721.2 641.906 708.752 637.421 693.396 637.421C678.04 637.421 665.592 641.906 665.592 647.439C665.592 652.972 678.04 657.457 693.396 657.457Z" fill="#3F3D56"/>
<path id="Vector_25" d="M715.189 644.057C700.701 654.249 686.675 654.249 673.113 644.057V628.028H715.189V644.057Z" fill="#6C63FF"/>
<path id="Vector_26" d="M694.151 636.042C705.77 636.042 715.189 632.454 715.189 628.028C715.189 623.601 705.77 620.013 694.151 620.013C682.532 620.013 673.113 623.601 673.113 628.028C673.113 632.454 682.532 636.042 694.151 636.042Z" fill="#6C63FF"/>
<path id="Vector_27" d="M695.153 628.028C696.259 628.028 697.156 627.579 697.156 627.026C697.156 626.473 696.259 626.024 695.153 626.024C694.046 626.024 693.149 626.473 693.149 627.026C693.149 627.579 694.046 628.028 695.153 628.028Z" fill="#E6E6E6"/>
<path id="Vector_28" d="M704.614 628.028C705.721 628.028 706.618 627.579 706.618 627.026C706.618 626.473 705.721 626.024 704.614 626.024C703.507 626.024 702.61 626.473 702.61 627.026C702.61 627.579 703.507 628.028 704.614 628.028Z" fill="#E6E6E6"/>
<path id="Vector_29" d="M699.883 630.393C700.99 630.393 701.887 629.945 701.887 629.391C701.887 628.838 700.99 628.389 699.883 628.389C698.777 628.389 697.88 628.838 697.88 629.391C697.88 629.945 698.777 630.393 699.883 630.393Z" fill="#E6E6E6"/>
<path id="Vector_30" d="M680.961 630.393C682.068 630.393 682.965 629.945 682.965 629.391C682.965 628.838 682.068 628.389 680.961 628.389C679.855 628.389 678.958 628.838 678.958 629.391C678.958 629.945 679.855 630.393 680.961 630.393Z" fill="#E6E6E6"/>
<path id="Vector_31" d="M685.692 628.028C686.798 628.028 687.695 627.579 687.695 627.026C687.695 626.473 686.798 626.024 685.692 626.024C684.585 626.024 683.688 626.473 683.688 627.026C683.688 627.579 684.585 628.028 685.692 628.028Z" fill="#E6E6E6"/>
<path id="Vector_32" d="M690.422 631.576C691.529 631.576 692.426 631.127 692.426 630.574C692.426 630.021 691.529 629.572 690.422 629.572C689.316 629.572 688.419 630.021 688.419 630.574C688.419 631.127 689.316 631.576 690.422 631.576Z" fill="#E6E6E6"/>
</g>
<g id="person">
<path id="Vector_33" d="M576.267 556.602L552.037 548.364L575.298 429.635L559.306 428.181C543.712 440.146 522.946 444.836 496.307 441.266L538.952 505.719L517.207 521.068L447.839 437.863C444.712 434.112 443 429.384 443 424.501C443 419.975 444.472 415.571 447.194 411.954C449.916 408.337 453.741 405.703 458.091 404.451L532.168 383.113L618.912 392.805C632.027 412.799 632.54 426.705 612.576 430.716L576.267 556.602Z" fill="#2F2E41"/>
<path id="Vector_34" d="M551.467 602.79C548.962 602.632 546.53 601.884 544.368 600.61C542.207 599.335 540.376 597.568 539.025 595.453C537.674 593.338 536.841 590.934 536.594 588.436C536.347 585.939 536.692 583.418 537.601 581.079L549.647 550.104C555.766 538.512 564.164 539.963 574.08 550.104L578.926 564.319C579.325 565.489 579.483 566.728 579.391 567.961C579.3 569.195 578.959 570.396 578.391 571.495L566.65 594.195C565.226 596.947 563.033 599.225 560.337 600.751C557.641 602.277 554.559 602.986 551.467 602.79Z" fill="#2F2E41"/>
<path id="Vector_35" d="M520.152 562.227C517.647 562.069 515.215 561.322 513.054 560.047C510.892 558.772 509.061 557.005 507.71 554.89C506.36 552.775 505.527 550.371 505.279 547.874C505.032 545.376 505.377 542.855 506.287 540.516L518.333 509.541C524.451 497.95 532.849 499.401 542.765 509.541L547.611 523.756C548.01 524.926 548.169 526.166 548.077 527.399C547.985 528.632 547.645 529.834 547.076 530.932L535.335 553.632C533.912 556.384 531.718 558.662 529.022 560.188C526.326 561.715 523.244 562.423 520.152 562.227Z" fill="#2F2E41"/>
<path id="Vector_36" d="M577.721 280.861L540.406 300.245L532.652 265.353L558.336 249.361L577.721 280.861Z" fill="#FFB9B9"/>
<path id="Vector_37" d="M622.789 397.651C585.555 386.405 551.771 380.578 527.322 389.413C535.749 365.705 520.194 329.501 503.091 292.491C510.471 282.845 522.237 279.108 535.56 277.469C550.137 288.053 560.301 281.26 568.029 264.869C584.882 264.192 601.124 270.161 616.974 280.376C604.584 320.062 606.814 359.142 622.789 397.651Z" fill="#3F3D56"/>
<path id="Vector_38" d="M526.837 395.228C520.957 398.694 515.531 404.531 510.36 411.705C501.622 406.356 493.932 400.266 487.874 393.022C483.634 387.886 480.743 381.773 479.463 375.237C478.183 368.701 478.554 361.949 480.544 355.593L497.105 301.771C498.48 297.301 501.152 293.34 504.782 290.391L506.968 288.615L528.775 329.806L506.968 370.513C509.734 377.928 517.883 386.492 526.837 395.228Z" fill="#3F3D56"/>
<path id="Vector_39" d="M534.343 436.264C532.366 437.165 530.206 437.594 528.035 437.517C525.863 437.439 523.74 436.858 521.832 435.818C519.924 434.778 518.284 433.308 517.042 431.525C515.8 429.743 514.99 427.695 514.676 425.545L511.072 400.871L523.672 394.086L539.663 415.02C540.94 416.692 541.824 418.63 542.249 420.691C542.675 422.752 542.63 424.882 542.119 426.923C541.608 428.964 540.643 430.864 539.297 432.481C537.951 434.098 536.258 435.391 534.343 436.264Z" fill="#FFB9B9"/>
<path id="Vector_40" d="M510.828 411.715C509.927 409.738 509.498 407.578 509.575 405.406C509.653 403.235 510.234 401.111 511.274 399.203C512.314 397.296 513.783 395.656 515.566 394.414C517.349 393.172 519.397 392.362 521.547 392.048L546.221 388.444L553.006 401.043L532.072 417.034C530.4 418.312 528.462 419.196 526.401 419.621C524.34 420.046 522.21 420.002 520.169 419.49C518.128 418.979 516.228 418.015 514.611 416.669C512.994 415.322 511.701 413.629 510.828 411.715Z" fill="#FFB9B9"/>
<path id="Vector_41" d="M627.49 389.27C604.015 391.093 578.384 398.413 551.552 408.797C551.219 400.832 548.33 393.186 543.314 386.99C567.684 380.571 589.798 373.038 603.405 361.306L595.167 299.276L613.097 278.922L616.19 280.536C618.759 281.871 621.018 283.731 622.821 285.995C624.625 288.259 625.932 290.877 626.659 293.679C634.23 323.128 637.592 351.344 635.281 377.897C635.579 380.415 634.954 382.955 633.521 385.047C632.089 387.138 629.946 388.639 627.49 389.27Z" fill="#3F3D56"/>
<g id="ras">
<path id="Vector_42" d="M535.56 269.715C550.548 269.715 562.698 257.565 562.698 242.577C562.698 227.589 550.548 215.439 535.56 215.439C520.572 215.439 508.422 227.589 508.422 242.577C508.422 257.565 520.572 269.715 535.56 269.715Z" fill="#FFB9B9"/>
<path id="Vector_43" d="M562.94 241.389L558.307 241.527L545.454 223.32C528.984 225.022 515.489 232.178 504.068 243.138L502.91 235.418C501.806 228.057 503.565 220.552 507.825 214.447C512.085 208.343 518.523 204.103 525.813 202.6H525.813C529.643 201.81 533.592 201.8 537.425 202.571C541.259 203.341 544.898 204.877 548.124 207.085C551.351 209.293 554.1 212.129 556.207 215.423C558.313 218.717 559.734 222.401 560.385 226.257L562.94 241.389Z" fill="#2F2E41"/>
<g id="littleHat">
<path id="Vector_44" d="M500.908 233.402C500.908 233.402 496.22 212.446 497.712 209.086C497.712 209.086 493.663 200.783 493.663 198.806C493.467 195.507 492.441 192.311 490.68 189.514C488.55 186.153 486.206 170.535 498.99 166.779C511.775 163.023 521.577 159.662 523.068 157.092C524.56 154.522 546.507 156.104 552.473 165.988C558.439 175.873 562.274 173.896 562.274 173.896C562.274 173.896 571.437 179.629 571.437 184.769C571.437 189.909 568.667 192.479 571.437 193.666C574.207 194.852 572.076 216.203 559.93 216.796L558.865 228.064C558.865 228.064 526.264 186.746 500.908 233.402Z" fill="#6C63FF"/>
<path id="Vector_45" opacity="0.1" d="M502.304 170.863C502.304 170.863 499.488 187.372 504.635 192.907L502.304 170.863Z" fill="black"/>
<path id="Vector_46" opacity="0.1" d="M515.511 167.075C515.511 167.075 508.325 184.75 510.073 188.148L515.511 167.075Z" fill="black"/>
<path id="Vector_47" opacity="0.1" d="M521.726 161.443C521.726 161.443 516.871 184.458 519.201 186.303L521.726 161.443Z" fill="black"/>
<path id="Vector_48" opacity="0.1" d="M530.078 167.658C530.078 167.658 524.057 182.419 526.485 184.458L530.078 167.658Z" fill="black"/>
<path id="Vector_49" opacity="0.1" d="M541.44 169.406C541.44 169.406 534.351 181.448 535.807 183.584L541.44 169.406Z" fill="black"/>
<path id="Vector_50" opacity="0.1" d="M556.006 181.156C556.006 181.156 548.432 183.196 549.985 185.624L556.006 181.156Z" fill="black"/>
<path id="Vector_51" opacity="0.1" d="M563.193 193.684C563.193 193.684 556.395 196.985 557.657 198.733L563.193 193.684Z" fill="black"/>
<path id="Vector_52" opacity="0.1" d="M497.712 209.086C497.712 209.086 541.13 191.449 559.93 216.796C559.93 216.796 537.111 197.394 497.712 209.086Z" fill="black"/>
</g>
</g>
</g>
</g>
</svg>
